<svg xmlns="http://www.w3.org/2000/svg" viewBox="0 0 528.67 490.12"><defs><style>.cls-1,.cls-3{fill:#fff;}.cls-1,.cls-2,.cls-3{stroke:#040000;}.cls-1,.cls-2{stroke-width:0.95px;}.cls-2{fill:#7f8080;}.cls-4{fill:#231815;}</style></defs><title>keychain</title><g id="shape"><path id="path3640" class="cls-1" d="M209.26,45.88l9.37-4.94L209,31.31H41.53L33,39.83V72.06l9.43,9.45L47,72.06,41,66.13V43.41l4.44-4H205.31l3.95,6.42Z"/><path id="path3646" class="cls-1" d="M72.85,71.3V448.53l4.88,5.59-3.83,7.31-10.82-10.8V81.08Z"/><path id="path3644" class="cls-2" d="M45.79,71.3,43,80.38H63.23L74.39,71.3Z"/><path id="path3638" class="cls-1" d="M323.7,81.5l4.44-9.14-6.41-5.93V46.18l7.4-7.41H483.54l5.92,7.9,8.39-5.93-8.63-8.64h-166l-8.26,8.27V72.85l8.57,8.09m-134.15,156-16.13,39.18,182-182.77V71.57L189.37,236.89Z"/><path id="path3642" class="cls-2" d="M208.89,44.75l8-5.24V71.3l-9.24,9.26h-18V237.21L173.31,276V71.3h30l5.58-4.54v-22Z"/><path id="path3622" class="cls-3" d="M327.66,38.46l-5.91,5.92V66.13l5.18,5.19H354.3v21l-181,183.74V71.57h30.09l6.17-6.18v-22L203.82,39H45.5l-5.18,5.19V66.65l5.27,5.27H73.12V448.48l5.18,5.19H109.6L489,61.67V44.39l-5.91-5.92Z"/><path id="path3636" class="cls-2" d="M489.46,44.89,497.88,40V70.58l-382.16,391H75.15L79,453.9H110.1L489,62.18Z"/><path id="path3652" class="cls-2" d="M354.52,71.82,346,80.73H323.65l5.23-8.91Z"/></g><g id="Contents"><path class="cls-4" d="M83.7,119.34v-3a5.61,5.61,0,0,0,1.61,1.18,4,4,0,0,0,1.73.4,2,2,0,0,0,1.49-.51,2.33,2.33,0,0,0,.47-1.63v-6.63H85.83v-2.29H91.6v8.91a4.81,4.81,0,0,1-1,3.43,4.49,4.49,0,0,1-3.32,1,7.16,7.16,0,0,1-1.75-.23A9.48,9.48,0,0,1,83.7,119.34Z"/><path class="cls-4" d="M97.52,110.65h2.94v3.21H97.52Zm0,6.12h2.94V120H97.52Z"/><path class="cls-4" d="M115.25,115.92l7.13-7.12,7.13,7.13Z"/><path class="cls-4" d="M138,119.07l-3.74-3.92,3.74-3.92v2.14h3.48v-3.79h3.56v7.36h-7Zm6.11-8.67h-1.71v3.89h-5.32v-.86l-1.52,1.72,1.52,1.72V116h7Z"/><path class="cls-4" d="M82.74,123.5v-.9h32.51v.9Z"/><path class="cls-4" d="M115.25,123.5v-.9h19v.9Z"/><path class="cls-4" d="M134.25,123.5v-.9h11.44v.9Z"/><path class="cls-4" d="M90.64,127.34h1.94l-6.91,14.79H83.73Z"/><path class="cls-4" d="M97.52,131.12h2.94v3.21H97.52Zm0,6.12h2.94v3.23H97.52Z"/><path class="cls-4" d="M115.25,130.64l1.69-1.69,3.94,4.32,3.94-4.32,1.69,1.69-5.62,5.63Z"/><path class="cls-4" d="M149.59,141.83a1.25,1.25,0,0,1-.91.38,1.19,1.19,0,0,1-.9-.39l-3.45-3.44a7.06,7.06,0,0,1-6.76.69,6.94,6.94,0,0,1-3.77-3.77,7.06,7.06,0,0,1,0-5.5,7,7,0,0,1,1.51-2.25,7.12,7.12,0,0,1,2.26-1.5,7.06,7.06,0,0,1,5.5,0,6.9,6.9,0,0,1,3.76,3.76,7.06,7.06,0,0,1-.69,6.76l3.45,3.45a1.27,1.27,0,0,1,0,1.81Zm-6.08-12.45a4.48,4.48,0,1,0,1.32,3.18A4.34,4.34,0,0,0,143.5,129.39Z"/><path class="cls-4" d="M82.74,143.5v-.95h32.51v.95Z"/><path class="cls-4" d="M115.25,143.5v-.95H150v.95Z"/><path class="cls-4" d="M89,157.94H86.61v-1.35a3.66,3.66,0,0,1,.27-1.49,4.37,4.37,0,0,1,1-1.3l.79-.78a4.34,4.34,0,0,0,.75-.89,1.47,1.47,0,0,0,.2-.73,1,1,0,0,0-.4-.89,2,2,0,0,0-1.21-.3,4.26,4.26,0,0,0-1.54.31,7.31,7.31,0,0,0-1.65.93V149.1a7.8,7.8,0,0,1,1.74-.74,6.47,6.47,0,0,1,1.77-.25,4.28,4.28,0,0,1,2.79.83,2.78,2.78,0,0,1,1,2.28,2.65,2.65,0,0,1-.3,1.24,6,6,0,0,1-1.12,1.38l-.77.76a3.57,3.57,0,0,0-.76.95,2.19,2.19,0,0,0-.17.91c0,.05,0,.11,0,.18s0,.15,0,.23Zm-2.35,1H89v2.49H86.61Z"/><path class="cls-4" d="M97.52,152.12h2.94v3.21H97.52Zm0,6.12h2.94v3.23H97.52Z"/><path class="cls-4" d="M124.81,157.83l-3.94-4.32-3.94,4.32-1.69-1.69,5.63-5.62,5.63,5.63Z"/><path class="cls-4" d="M149.59,162.83a1.24,1.24,0,0,1-.91.38,1.19,1.19,0,0,1-.9-.39l-3.45-3.44a6.88,6.88,0,0,1-4,1.25,7,7,0,0,1-2.75-.56,6.94,6.94,0,0,1-3.77-3.77,7.06,7.06,0,0,1,0-5.5,7,7,0,0,1,1.51-2.25,7.12,7.12,0,0,1,2.26-1.5,7.06,7.06,0,0,1,5.5,0,6.9,6.9,0,0,1,3.76,3.76,7.06,7.06,0,0,1-.69,6.76l3.45,3.45a1.27,1.27,0,0,1,0,1.81Zm-6.08-12.45a4.48,4.48,0,1,0,1.32,3.18A4.34,4.34,0,0,0,143.5,150.39Z"/><path class="cls-4" d="M82.74,164.54v-1h32.51v1Z"/><path class="cls-4" d="M115.25,164.54v-1H150v1Z"/><path class="cls-4" d="M87.62,171.92l-2.84,2.84,2.84,2.84-1.22,1.22-3.66-4.06,3.66-4.06Zm6.5,2.84-3.66,4.06-1.22-1.22,2.84-2.84-2.84-2.84,1.22-1.22Z"/><path class="cls-4" d="M98.06,172.71H101v3.21H98.06Zm0,6.12H101v3.23H98.06Z"/><path class="cls-4" d="M116.37,177.48v-.72l2.56-2.56.79.79-1.41,1.41H126v1.44h-7.73l1.41,1.41-.79.79Z"/><path class="cls-4" d="M136.88,177.75l-2.56,2.56-1.05-1.05,1.14-1.14h-7.21v-2h7.21L133.27,175l1.05-1.05,2.56,2.56Z"/><path class="cls-4" d="M82.74,184.6v-.81H94.12v.81Z"/><path class="cls-4" d="M94.12,184.6v-.81h21.67v.81Z"/><path class="cls-4" d="M115.79,184.6v-.81h10.84v.81Z"/><path class="cls-4" d="M126.63,184.6v-.81h10.84v.81Z"/><path class="cls-4" d="M83.51,194.88H92.8v2.07H83.51Zm0,4H92.8V201H83.51Z"/><path class="cls-4" d="M97.52,194.21h2.94v3.21H97.52Zm0,6.12h2.94v3.23H97.52Z"/><path class="cls-4" d="M125.51,199.25,123,201.81l-1.05-1.05,1.14-1.14h-7.21v-2H123l-1.14-1.14,1.05-1.05,2.56,2.56Z"/><path class="cls-4" d="M141.72,199.44a8,8,0,0,1-4.32,4.32,8.11,8.11,0,0,1-6.34,0,8.21,8.21,0,0,1-2.6-1.73,8.12,8.12,0,0,1-1.74-2.59,8.11,8.11,0,0,1,0-6.34,8,8,0,0,1,4.33-4.33,8.1,8.1,0,0,1,6.34,0A8.11,8.11,0,0,1,140,190.5a8.2,8.2,0,0,1,1.73,2.6,8.11,8.11,0,0,1,0,6.34Zm-2.5-6.06a5.72,5.72,0,0,0-2.1-2.1,5.79,5.79,0,0,0-5.79,0,5.75,5.75,0,0,0-2.1,2.1,5.8,5.8,0,0,0,0,5.79,5.76,5.76,0,0,0,5,2.87,5.65,5.65,0,0,0,2.24-.45,5.66,5.66,0,0,0,3.07-3.07,5.79,5.79,0,0,0-.32-5.13Zm-5.2,6.48a.66.66,0,0,1-1,0L130,196.74a.66.66,0,0,1,0-1l1.08-1.08a.66.66,0,0,1,1,0l1.56,1.56,2.91-2.92a.66.66,0,0,1,1,0l1.08,1.08a.66.66,0,0,1,0,1Z"/><path class="cls-4" d="M82.74,206.67v-1h43.35v1Z"/><path class="cls-4" d="M126.09,206.67v-1h16.28v1Z"/><path class="cls-4" d="M93.38,218.42a7.2,7.2,0,0,1-1.54,2.47,2.43,2.43,0,0,1-1.57.64A3.14,3.14,0,0,1,88,220.24l-1.34-1.66a1,1,0,0,0-.87-.41.93.93,0,0,0-.85.54,15.3,15.3,0,0,0-.76,1.72l-1.42-.82a8.21,8.21,0,0,1,.62-1.49,4.49,4.49,0,0,1,.74-1,2.44,2.44,0,0,1,1.7-.79,2.55,2.55,0,0,1,1.44.43,4.55,4.55,0,0,1,1.27,1.34q1.08,1.64,1.78,1.64a1.1,1.1,0,0,0,.95-.65q.18-.33.38-.74t.37-.84Z"/><path class="cls-4" d="M97.52,214.71h2.94v3.21H97.52Zm0,6.12h2.94v3.23H97.52Z"/><path class="cls-4" d="M125,218.44v5.62h-2.56V223a3.1,3.1,0,0,1-1.2,1,4.12,4.12,0,0,1-4.22-.54,3.26,3.26,0,0,1-.94-2.48,3,3,0,0,1,1.12-2.54,5.86,5.86,0,0,1,3.45-.82h1.78v-.43a1.09,1.09,0,0,0-.45-.95,2.31,2.31,0,0,0-1.33-.32,6.9,6.9,0,0,0-1.79.23,8.44,8.44,0,0,0-1.81.74v-2.2a8.88,8.88,0,0,1,1.73-.52,10,10,0,0,1,1.86-.17,4.68,4.68,0,0,1,3.37,1A4.91,4.91,0,0,1,125,218.44Zm-3.59,1a4,4,0,0,0-2,.37,1.39,1.39,0,0,0-.57,1.27,1.36,1.36,0,0,0,1.47,1.46,1.84,1.84,0,0,0,1.58-.77,3.58,3.58,0,0,0,.56-2.15v-.18Z"/><path class="cls-4" d="M129.92,210.93h3.17l3.54,13.12H134l-.81-3.24h-3.47l-.79,3.24h-2.59Zm1.58,2.37-1.22,5.37h2.45Z"/><path class="cls-4" d="M82.74,225.59v-.79h54.18v.79Z"/><path class="cls-4" d="M89.69,235v-5.23h2.57v13.68H89.69V242a3.11,3.11,0,0,1-1.07,1.28,2.74,2.74,0,0,1-1.54.43,3,3,0,0,1-2.62-1.35,6.67,6.67,0,0,1-.93-3.81,6.59,6.59,0,0,1,.94-3.83,3.1,3.1,0,0,1,2.69-1.34,2.54,2.54,0,0,1,1.42.41A3.53,3.53,0,0,1,89.69,235Zm-3.59,3.55a4.42,4.42,0,0,0,.47,2.23,1.46,1.46,0,0,0,1.31.81,1.48,1.48,0,0,0,1.32-.81,5.4,5.4,0,0,0,0-4.46,1.48,1.48,0,0,0-1.32-.81,1.46,1.46,0,0,0-1.31.81A4.42,4.42,0,0,0,86.11,238.57Z"/><path class="cls-4" d="M97.52,234.12h2.94v3.21H97.52Zm0,6.12h2.94v3.23H97.52Z"/><path class="cls-4" d="M133,240.86a.6.6,0,0,1,.25.56.63.63,0,0,1-.35.51l-1.28.64a.55.55,0,0,1-.29.07.6.6,0,0,1-.32-.08l-6.93-3.88-1.11.66-.05,0-.07,0a2.82,2.82,0,0,1,.11,1,3,3,0,0,1-.56,1.48,4.57,4.57,0,0,1-1.33,1.24,5.08,5.08,0,0,1-2.79.84,3.19,3.19,0,0,1-2.23-.78,2.52,2.52,0,0,1-.79-2.07,3,3,0,0,1,.56-1.48,4.55,4.55,0,0,1,1.32-1.24,5.1,5.1,0,0,1,2.79-.84,3.57,3.57,0,0,1,1.51.31.78.78,0,0,1,.22-.22l1.23-.73-1.23-.74a.78.78,0,0,1-.22-.22,3.56,3.56,0,0,1-1.51.32,5.1,5.1,0,0,1-2.79-.84,4.55,4.55,0,0,1-1.32-1.24,3,3,0,0,1-.56-1.48,2.54,2.54,0,0,1,.15-1.14,2.35,2.35,0,0,1,.64-.94,3.17,3.17,0,0,1,2.23-.79,5.08,5.08,0,0,1,2.79.84,4.44,4.44,0,0,1,1.33,1.23,3,3,0,0,1,.56,1.49,2.82,2.82,0,0,1-.11,1l.12,0,1.11.67,6.93-3.88a.61.61,0,0,1,.32-.09.55.55,0,0,1,.29.07l1.28.65a.63.63,0,0,1,.35.51.6.6,0,0,1-.25.56l-5.09,4Zm-11.72-7.7a2.5,2.5,0,0,0-1.06-1.18,3.51,3.51,0,0,0-1.93-.59,1.65,1.65,0,0,0-1.13.36.91.91,0,0,0-.21,1.08A2.5,2.5,0,0,0,118,234a3.53,3.53,0,0,0,1.93.6,1.65,1.65,0,0,0,1.13-.36A.91.91,0,0,0,121.28,233.16Zm0,7.39a.91.91,0,0,0-.21-1.08,1.65,1.65,0,0,0-1.13-.36,3.51,3.51,0,0,0-1.93.59,2.5,2.5,0,0,0-1.06,1.18.91.91,0,0,0,.21,1.08,1.65,1.65,0,0,0,1.13.36,3.51,3.51,0,0,0,1.93-.59A2.5,2.5,0,0,0,121.28,240.55Zm3.94-2.41,7.39-5.78-1.28-.64L123.61,236v1.13l-1.61,1,.09.08.07.06.11.11.11.12.26.26,1.61-1Zm-2.25-2V236a.63.63,0,0,1,.33-.56l.14-.08-.79-.47-.26.26-.1.11-.12.12,0,0,0,0-.09.09Zm2.38.25a.64.64,0,1,1-.45-.19A.62.62,0,0,1,125.35,236.4Zm7.26,5-5.22-4.1-1.78,1.39s-.06,0-.13.07l5.85,3.29Z"/><path class="cls-4" d="M82.74,246.47v-.89h32.51v.89Z"/><path class="cls-4" d="M115.25,246.47v-.89h18v.89Z"/><path class="cls-4" d="M92.8,252.62l-3.31,4.71,3.6,5.13h-3l-1.93-3.31-1.92,3.31h-3l3.64-5.13-3.35-4.71h3l1.63,2.94,1.64-2.94Z"/><path class="cls-4" d="M97.52,253.12h2.94v3.21H97.52Zm0,6.12h2.94v3.23H97.52Z"/><path class="cls-4" d="M128,260.17l-1.36,1.37a.93.93,0,0,1-.69.28.92.92,0,0,1-.68-.28l-3-3-3,3a1,1,0,0,1-1.37,0l-1.36-1.37a.93.93,0,0,1-.28-.69.92.92,0,0,1,.28-.68l3-3-3-3a1,1,0,0,1,0-1.37l1.36-1.36a1,1,0,0,1,1.37,0l3,3,3-3a.92.92,0,0,1,.68-.28.93.93,0,0,1,.69.28l1.36,1.36a1,1,0,0,1,0,1.37l-3,3,3,3a.92.92,0,0,1,.28.68A.93.93,0,0,1,128,260.17Z"/><path class="cls-4" d="M82.74,265.47v-.89h32.51v.89Z"/><path class="cls-4" d="M115.25,265.47v-.89h14.14v.89Z"/><path class="cls-4" d="M89,282.53a5,5,0,0,1-1.24,2,2.58,2.58,0,0,1-1.76.64H83.86v-2h1a2,2,0,0,0,1.16-.27,2.86,2.86,0,0,0,.75-1.24l.19-.53-3.74-9.57H86L88.22,278l2.15-6.39h2.71Z"/><path class="cls-4" d="M97.52,272.12h2.94v3.21H97.52Zm0,6.12h2.94v3.23H97.52Z"/><path class="cls-4" d="M133,269.35a.93.93,0,0,1,.28.69v12.22a1,1,0,0,1-1,1h-9.64a1,1,0,0,1-1-1v-2.89h-5.46a1,1,0,0,1-1-1v-6.75a2.3,2.3,0,0,1,.2-.88,2.35,2.35,0,0,1,.48-.76l4.1-4.1a2.31,2.31,0,0,1,.76-.48,2.34,2.34,0,0,1,.88-.2h4.18a.94.94,0,0,1,.69.28.92.92,0,0,1,.28.68v3.3a2.62,2.62,0,0,1,1.28-.4h4.17A.93.93,0,0,1,133,269.35Zm-7.44,1.33V266.5h-3.86v4.17a.94.94,0,0,1-.28.69.92.92,0,0,1-.68.28h-4.18v6.42h5.14V275.5a2.71,2.71,0,0,1,.69-1.65Zm-8.15-.32h3v-3Zm14.58,0h-3.86v4.17a1,1,0,0,1-1,1H123v6.42h9Zm-8.15,3.86h3v-3Z"/><path class="cls-4" d="M82.74,284.47v-.89h32.51v.89Z"/><path class="cls-4" d="M115.25,284.47v-.89h18v.89Z"/><path class="cls-4" d="M86.63,299.08v5.13H84.06V290.62h2.57v1.48a3,3,0,0,1,1.06-1.28,2.76,2.76,0,0,1,1.55-.43,3,3,0,0,1,2.62,1.35,6.67,6.67,0,0,1,.93,3.81,6.59,6.59,0,0,1-.95,3.83,3.1,3.1,0,0,1-2.69,1.34,2.54,2.54,0,0,1-1.42-.41A3.51,3.51,0,0,1,86.63,299.08Zm3.59-3.54a4.42,4.42,0,0,0-.47-2.23,1.46,1.46,0,0,0-1.31-.81,1.48,1.48,0,0,0-1.32.81,5.4,5.4,0,0,0,0,4.46,1.48,1.48,0,0,0,1.32.81,1.46,1.46,0,0,0,1.31-.81A4.42,4.42,0,0,0,90.21,295.54Z"/><path class="cls-4" d="M97.52,291.12h2.94v3.21H97.52Zm0,6.12h2.94v3.23H97.52Z"/><path class="cls-4" d="M128.75,298.51v2.25a1,1,0,0,1-.37.84,1.24,1.24,0,0,1-.75.28H116.38a1,1,0,0,1-1.12-1.12V288.39a1,1,0,0,1,1.13-1.12h3.38a2.25,2.25,0,0,1,4.5,0h3.38a1,1,0,0,1,1.13,1.13V294h-1.12v-3.37H116.38v10.13h11.25v-2.25Zm-2.25-9a1,1,0,0,0-1.12-1.12h-1.12a1,1,0,0,1-1.12-1.12,1.13,1.13,0,0,0-2.25,0,1,1,0,0,1-1.12,1.13h-1.12a1,1,0,0,0-1.12,1.13Zm-3.37,3.38H117.5v-1.12h5.63Zm-2.81,2.25H117.5V294h2.81Zm-2.81,1.13h2.81v1.13H117.5Zm4.5,2.25v1.13h-4.5v-1.12Zm9-3.37v2.25h-5.62v2.25L122,296.26l3.38-3.37v2.25Z"/><path class="cls-4" d="M82.74,303.47v-.89h32.51v.89Z"/><path class="cls-4" d="M115.25,303.47v-.89h18v.89Z"/><path class="cls-4" d="M84.15,316v-6.41h2.58v6a2.89,2.89,0,0,0,.3,1.52,1.1,1.1,0,0,0,1,.46A1.22,1.22,0,0,0,89.1,317a3.2,3.2,0,0,0,.39-1.72v-5.65h2.58v9.84H89.49V318a2.4,2.4,0,0,1-.93,1.27,2.72,2.72,0,0,1-1.58.45,2.51,2.51,0,0,1-2.12-.93A4.48,4.48,0,0,1,84.15,316Z"/><path class="cls-4" d="M97.52,310.12h2.94v3.21H97.52Zm0,6.12h2.94v3.23H97.52Z"/><path class="cls-4" d="M128.38,309.92q2.63,2.72,2.62,8.16-3-6.75-9-6.75v3.94l-6.19-6.19,6.19-6.19v3.94A10,10,0,0,1,128.38,309.92Z"/><path class="cls-4" d="M82.74,322.51v-1h32.51v1Z"/><path class="cls-4" d="M115.25,322.51v-1h18v1Z"/><path class="cls-4" d="M384,69.82h2.14l1.17,7.54,1.06-5h2.08l1,5,1.19-7.54h2.14L393,79.67h-2.44l-1.2-5.12-1.19,5.12h-2.44Z"/><path class="cls-4" d="M398.75,70.33h2.94v3.21h-2.94Zm0,6.12h2.94v3.23h-2.94Z"/><path class="cls-4" d="M425.89,73.28v6.39h-2.56v-6a2.92,2.92,0,0,0-.3-1.53,1.1,1.1,0,0,0-1-.46,1.24,1.24,0,0,0-1.09.62,3.2,3.2,0,0,0-.4,1.73v5.63H418V69.82h2.56V71.3a2.39,2.39,0,0,1,.93-1.27,2.76,2.76,0,0,1,1.59-.45,2.49,2.49,0,0,1,2.11.93A4.5,4.5,0,0,1,425.89,73.28Z"/><path class="cls-4" d="M427.31,69.82h2.14l1.17,7.54,1.06-5h2.08l1,5L436,69.82h2.14l-1.78,9.84h-2.44l-1.2-5.12-1.19,5.12H429.1Z"/><path class="cls-4" d="M384,81.94v-.79h54.18v.79Z"/><path class="cls-4" d="M375.67,91.22a3.54,3.54,0,0,1,1.1-1.23,2.54,2.54,0,0,1,1.42-.41,3.1,3.1,0,0,1,2.69,1.34,6.59,6.59,0,0,1,.94,3.83,6.67,6.67,0,0,1-.93,3.81,3,3,0,0,1-2.62,1.35,2.76,2.76,0,0,1-1.55-.43,3,3,0,0,1-1.06-1.28v1.46H373.1V86h2.57Zm3.59,3.55a4.42,4.42,0,0,0-.47-2.23,1.46,1.46,0,0,0-1.31-.81,1.48,1.48,0,0,0-1.32.81,5.4,5.4,0,0,0,0,4.46,1.48,1.48,0,0,0,1.32.81,1.46,1.46,0,0,0,1.31-.81A4.42,4.42,0,0,0,379.25,94.77Z"/><path class="cls-4" d="M386.56,90.33h2.94v3.21h-2.94Zm0,6.12h2.94v3.23h-2.94Z"/><path class="cls-4" d="M408.18,91.22a3.54,3.54,0,0,1,1.1-1.23,2.54,2.54,0,0,1,1.42-.41,3.1,3.1,0,0,1,2.69,1.34,6.59,6.59,0,0,1,.94,3.83,6.67,6.67,0,0,1-.93,3.81,3,3,0,0,1-2.62,1.35,2.76,2.76,0,0,1-1.55-.43,3,3,0,0,1-1.06-1.28v1.46h-2.57V86h2.57Zm3.59,3.55a4.42,4.42,0,0,0-.47-2.23,1.46,1.46,0,0,0-1.31-.81,1.48,1.48,0,0,0-1.32.81,5.4,5.4,0,0,0,0,4.46,1.48,1.48,0,0,0,1.32.81,1.46,1.46,0,0,0,1.31-.81A4.42,4.42,0,0,0,411.76,94.77Z"/><path class="cls-4" d="M415.13,89.82h2.14l1.17,7.54,1.06-5h2.08l1,5,1.19-7.54H426l-1.78,9.84h-2.44l-1.2-5.12-1.19,5.12h-2.44Z"/><path class="cls-4" d="M371.78,101.21v-.79H426v.79Z"/><path class="cls-4" d="M362.69,118.19a9.79,9.79,0,0,1-1.83.55,10.12,10.12,0,0,1-2,.18,5.07,5.07,0,0,1-3.78-1.32,5.2,5.2,0,0,1-1.3-3.81,5.48,5.48,0,0,1,1.26-3.81,5,5,0,0,1,6.83-.1,5.16,5.16,0,0,1,1.21,3.65v1h-6.67a2.16,2.16,0,0,0,.69,1.73,3.07,3.07,0,0,0,2,.57,6.13,6.13,0,0,0,1.75-.25,8.13,8.13,0,0,0,1.8-.81Zm-2.18-5.54a2.19,2.19,0,0,0-.52-1.54,2,2,0,0,0-1.49-.52,1.89,1.89,0,0,0-1.42.54,2.46,2.46,0,0,0-.62,1.53Z"/><path class="cls-4" d="M367.78,109.33h2.94v3.21h-2.94Zm0,6.12h2.94v3.23h-2.94Z"/><path class="cls-4" d="M395.2,118.19a9.79,9.79,0,0,1-1.83.55,10.12,10.12,0,0,1-2,.18,5.07,5.07,0,0,1-3.78-1.32,5.2,5.2,0,0,1-1.3-3.81,5.48,5.48,0,0,1,1.26-3.81,5,5,0,0,1,6.83-.1,5.16,5.16,0,0,1,1.21,3.65v1h-6.67a2.16,2.16,0,0,0,.69,1.73,3.07,3.07,0,0,0,2,.57,6.13,6.13,0,0,0,1.75-.25,8.13,8.13,0,0,0,1.8-.81ZM393,112.65a2.19,2.19,0,0,0-.52-1.54,2,2,0,0,0-1.49-.52,1.89,1.89,0,0,0-1.42.54,2.46,2.46,0,0,0-.62,1.53Z"/><path class="cls-4" d="M396.35,108.82h2.14l1.17,7.54,1.06-5h2.08l1,5,1.19-7.54h2.14l-1.78,9.84H403l-1.2-5.12-1.19,5.12h-2.44Z"/><path class="cls-4" d="M353,120.21v-.79h54.18v.79Z"/><path class="cls-4" d="M340.71,124.55l3.84,4.9h-2.13l-2.79-2.65-2.79,2.65h-2.13l3.84-4.9Z"/><path class="cls-4" d="M349,128.33h2.94v3.21H349Zm0,6.12h2.94v3.23H349Z"/><path class="cls-4" d="M370.62,129.22a3.54,3.54,0,0,1,1.1-1.23,2.54,2.54,0,0,1,1.42-.41,3.1,3.1,0,0,1,2.69,1.34,6.59,6.59,0,0,1,.94,3.83,6.67,6.67,0,0,1-.93,3.81,3,3,0,0,1-2.62,1.35,2.76,2.76,0,0,1-1.55-.43,3,3,0,0,1-1.06-1.28v1.46H368V124h2.57Zm3.59,3.55a4.42,4.42,0,0,0-.47-2.23,1.46,1.46,0,0,0-1.31-.81,1.48,1.48,0,0,0-1.32.81,5.4,5.4,0,0,0,0,4.46,1.48,1.48,0,0,0,1.32.81,1.46,1.46,0,0,0,1.31-.81A4.42,4.42,0,0,0,374.2,132.77Z"/><path class="cls-4" d="M381,133.56V126h-2.61v-2h5.19v9.57a2.83,2.83,0,0,0,.36,1.64,1.43,1.43,0,0,0,1.22.48h2.06v2h-2.78a3.27,3.27,0,0,1-2.64-.95A4.91,4.91,0,0,1,381,133.56Z"/><path class="cls-4" d="M334.22,139.21v-.79H388.4v.79Z"/><path class="cls-4" d="M321.54,159.31H320.3v-2.65a8,8,0,0,1-1.6-.23,11.65,11.65,0,0,1-1.74-.58v-2.3a9.46,9.46,0,0,0,1.75.83,5.12,5.12,0,0,0,1.59.3v-2.89a4.94,4.94,0,0,1-2.58-1.18,3,3,0,0,1-.84-2.22,3.11,3.11,0,0,1,.9-2.34,3.85,3.85,0,0,1,2.52-1V143h1.24v2.08a10.45,10.45,0,0,1,1.3.16,11.6,11.6,0,0,1,1.38.34v2.25a5,5,0,0,0-1.21-.56,6.23,6.23,0,0,0-1.47-.26v2.7a4.51,4.51,0,0,1,2.62,1.18,3.33,3.33,0,0,1,.88,2.42,3.15,3.15,0,0,1-1,2.36,3.78,3.78,0,0,1-2.54,1Zm-1.24-9.83V147a1.32,1.32,0,0,0-.82.36,1.12,1.12,0,0,0-.28.8,1.26,1.26,0,0,0,.28.83A1.56,1.56,0,0,0,320.3,149.49Zm1.24,2.54v2.65a1.36,1.36,0,0,0,.86-.43,1.28,1.28,0,0,0,.31-.88,1.3,1.3,0,0,0-.3-.89A1.46,1.46,0,0,0,321.54,152Z"/><path class="cls-4" d="M330.22,147.33h2.94v3.21h-2.94Zm0,6.12h2.94v3.23h-2.94Z"/><path class="cls-4" d="M357.63,156.19a9.79,9.79,0,0,1-1.83.55,10.12,10.12,0,0,1-2,.18,5.07,5.07,0,0,1-3.78-1.32,5.2,5.2,0,0,1-1.3-3.81A5.48,5.48,0,0,1,350,148a5,5,0,0,1,6.83-.1,5.16,5.16,0,0,1,1.21,3.65v1h-6.67a2.16,2.16,0,0,0,.69,1.73,3.07,3.07,0,0,0,2,.57,6.13,6.13,0,0,0,1.75-.25,8.13,8.13,0,0,0,1.8-.81Zm-2.18-5.54a2.19,2.19,0,0,0-.52-1.54,2,2,0,0,0-1.49-.52,1.89,1.89,0,0,0-1.42.54,2.46,2.46,0,0,0-.62,1.53Z"/><path class="cls-4" d="M362.19,152.56V145h-2.61v-2h5.19v9.57a2.83,2.83,0,0,0,.36,1.64,1.43,1.43,0,0,0,1.22.48h2.06v2h-2.78a3.27,3.27,0,0,1-2.64-.95A4.91,4.91,0,0,1,362.19,152.56Z"/><path class="cls-4" d="M315.44,158.21v-.79h54.18v.79Z"/><path class="cls-4" d="M296.95,165.95a2.78,2.78,0,1,1,.82,2A2.71,2.71,0,0,1,296.95,165.95Zm.47,4.84,9.16-3.67.36.84-9.21,3.67Zm2.34-6a1.2,1.2,0,1,0,.85.35A1.17,1.17,0,0,0,299.75,164.74Zm2,8.17a2.81,2.81,0,1,1,5.62,0,2.81,2.81,0,1,1-5.62,0Zm2.79-1.21a1.13,1.13,0,0,0-.84.35,1.24,1.24,0,0,0,0,1.72,1.14,1.14,0,0,0,.84.35,1.19,1.19,0,0,0,.87-.35,1.2,1.2,0,0,0,0-1.71A1.18,1.18,0,0,0,304.54,171.7Z"/><path class="cls-4" d="M311.44,166.38h2.94v3.21h-2.94Zm0,6.12h2.94v3.23h-2.94Z"/><path class="cls-4" d="M337.29,162a19.65,19.65,0,0,0-1.72,4.08,14.09,14.09,0,0,0,0,7.88,19.73,19.73,0,0,0,1.72,4.1h-2a16.65,16.65,0,0,1-2.07-4,12.29,12.29,0,0,1,0-8.06,16.42,16.42,0,0,1,2.07-4Z"/><path class="cls-4" d="M353.85,169l-2,2a.5.5,0,0,1-.85-.36v-1h-8v1a.5.5,0,0,1-.85.36l-2-2a.48.48,0,0,1-.15-.35.48.48,0,0,1,.15-.36l2-2a.49.49,0,0,1,.36-.15.5.5,0,0,1,.5.5v1h8v-1a.5.5,0,0,1,.5-.5.49.49,0,0,1,.36.15l2,2a.48.48,0,0,1,.15.36A.48.48,0,0,1,353.85,169Z"/><path class="cls-4" d="M356.72,162h2a16.41,16.41,0,0,1,2.07,4,12.28,12.28,0,0,1,0,8.06,16.65,16.65,0,0,1-2.07,4h-2a19.73,19.73,0,0,0,1.72-4.1,14.09,14.09,0,0,0,0-7.88A19.65,19.65,0,0,0,356.72,162Z"/><path class="cls-4" d="M296.66,178.39v-.82H340v.82Z"/><path class="cls-4" d="M340,178.39v-.82h14v.82Z"/><path class="cls-4" d="M354,178.39v-.82h10.84v.82Z"/><path class="cls-4" d="M284,183a19.65,19.65,0,0,0-1.72,4.08,14.09,14.09,0,0,0,0,7.88,19.72,19.72,0,0,0,1.72,4.1h-2a16.65,16.65,0,0,1-2.07-4,12.29,12.29,0,0,1,0-8.06,16.42,16.42,0,0,1,2.07-4Z"/><path class="cls-4" d="M290.68,187.33h2.94v3.21h-2.94Zm0,6.12h2.94v3.23h-2.94Z"/><path class="cls-4" d="M312.29,188.22a3.54,3.54,0,0,1,1.1-1.23,2.54,2.54,0,0,1,1.42-.41,3.1,3.1,0,0,1,2.69,1.34,6.59,6.59,0,0,1,.94,3.83,6.67,6.67,0,0,1-.93,3.81,3,3,0,0,1-2.62,1.35,2.76,2.76,0,0,1-1.55-.43,3,3,0,0,1-1.06-1.28v1.46h-2.57V183h2.57Zm3.59,3.55a4.42,4.42,0,0,0-.47-2.23,1.46,1.46,0,0,0-1.31-.81,1.48,1.48,0,0,0-1.32.81,5.4,5.4,0,0,0,0,4.46,1.48,1.48,0,0,0,1.32.81,1.46,1.46,0,0,0,1.31-.81A4.42,4.42,0,0,0,315.88,191.77Z"/><path class="cls-4" d="M322.83,195.46l-3.54-3.72,3.54-3.72v2h3.3v-3.59h3.38v7h-6.67Zm5.79-8.21H327v3.68h-5v-.82l-1.44,1.63,1.44,1.63v-.82h6.66Z"/><path class="cls-4" d="M275.9,198.21v-.79h54.18v.79Z"/><path class="cls-4" d="M259.83,202h2a16.41,16.41,0,0,1,2.07,4,12.29,12.29,0,0,1,0,8.06,16.65,16.65,0,0,1-2.07,4h-2a19.73,19.73,0,0,0,1.72-4.1,14.09,14.09,0,0,0,0-7.88A19.65,19.65,0,0,0,259.83,202Z"/><path class="cls-4" d="M271.9,206.33h2.94v3.21H271.9Zm0,6.12h2.94v3.23H271.9Z"/><path class="cls-4" d="M299.32,215.19a9.79,9.79,0,0,1-1.83.55,10.12,10.12,0,0,1-2,.18,5.07,5.07,0,0,1-3.78-1.32,5.2,5.2,0,0,1-1.3-3.81A5.48,5.48,0,0,1,291.7,207a5,5,0,0,1,6.83-.1,5.16,5.16,0,0,1,1.21,3.65v1h-6.67a2.16,2.16,0,0,0,.69,1.73,3.07,3.07,0,0,0,2,.57,6.13,6.13,0,0,0,1.75-.25,8.13,8.13,0,0,0,1.8-.81Zm-2.18-5.54a2.19,2.19,0,0,0-.52-1.54,2,2,0,0,0-1.49-.52,1.88,1.88,0,0,0-1.42.54,2.46,2.46,0,0,0-.62,1.53Z"/><path class="cls-4" d="M304.05,214.46l-3.54-3.72,3.54-3.72v2h3.3v-3.59h3.38v7h-6.67Zm5.79-8.21h-1.62v3.68h-5v-.82l-1.44,1.63,1.44,1.63v-.82h6.66Z"/><path class="cls-4" d="M257.12,217.21v-.79H311.3v.79Z"/><path class="cls-4" d="M247.59,235.93v1.68h-1.32a4.67,4.67,0,0,1-2.93-.65,3.42,3.42,0,0,1-.74-2.59v-1.89a2.71,2.71,0,0,0-.47-1.83,2.28,2.28,0,0,0-1.7-.51h-.54v-1.68h.54a2.29,2.29,0,0,0,1.7-.5,2.71,2.71,0,0,0,.47-1.84v-1.89a3.4,3.4,0,0,1,.74-2.59,4.69,4.69,0,0,1,2.93-.65h1.32v1.67h-1.08a1.56,1.56,0,0,0-1.22.37,2.82,2.82,0,0,0-.31,1.63v1.84a3.58,3.58,0,0,1-.43,2,2.22,2.22,0,0,1-1.54.76,2.26,2.26,0,0,1,1.54.78,3.61,3.61,0,0,1,.43,2v1.8a2.86,2.86,0,0,0,.31,1.64,1.55,1.55,0,0,0,1.22.37Z"/><path class="cls-4" d="M253.12,225.33h2.94v3.21h-2.94Zm0,6.12h2.94v3.23h-2.94Z"/><path class="cls-4" d="M274.73,226.22a3.52,3.52,0,0,1,1.1-1.23,2.54,2.54,0,0,1,1.42-.41,3.1,3.1,0,0,1,2.69,1.34,6.59,6.59,0,0,1,.94,3.83,6.67,6.67,0,0,1-.93,3.81,3,3,0,0,1-2.62,1.35,2.76,2.76,0,0,1-1.55-.43,3,3,0,0,1-1.06-1.28v1.46h-2.57V221h2.57Zm3.59,3.55a4.42,4.42,0,0,0-.47-2.23,1.46,1.46,0,0,0-1.31-.81,1.48,1.48,0,0,0-1.32.81,5.4,5.4,0,0,0,0,4.46,1.48,1.48,0,0,0,1.32.81,1.46,1.46,0,0,0,1.31-.81A4.42,4.42,0,0,0,278.32,229.77Z"/><path class="cls-4" d="M286.47,221.55H291V236.4h-1.68V222.84H287.7V236.4H286V229a4.6,4.6,0,0,1-2.77-1.18,3.75,3.75,0,0,1,.17-5.22A4.38,4.38,0,0,1,286.47,221.55Z"/><path class="cls-4" d="M238.34,236.21v-.79h54.19v.79Z"/><path class="cls-4" d="M221.14,254.93h1.06a1.57,1.57,0,0,0,1.23-.38,2.8,2.8,0,0,0,.32-1.63v-1.8a3.61,3.61,0,0,1,.43-2,2.25,2.25,0,0,1,1.53-.78,2.21,2.21,0,0,1-1.53-.76,3.61,3.61,0,0,1-.43-2v-1.84a2.79,2.79,0,0,0-.31-1.62,1.56,1.56,0,0,0-1.23-.38h-1.06V240h1.32a4.63,4.63,0,0,1,2.91.65,3.43,3.43,0,0,1,.73,2.59v1.89a2.68,2.68,0,0,0,.48,1.83,2.32,2.32,0,0,0,1.72.5h.54v1.68h-.54a2.31,2.31,0,0,0-1.72.51,2.68,2.68,0,0,0-.48,1.83v1.89a3.44,3.44,0,0,1-.73,2.59,4.61,4.61,0,0,1-2.91.65h-1.32Z"/><path class="cls-4" d="M234.34,244.33h2.94v3.21h-2.94Zm0,6.12h2.94v3.23h-2.94Z"/><path class="cls-4" d="M261.75,253.19a9.79,9.79,0,0,1-1.83.55,10.12,10.12,0,0,1-2,.18,5.07,5.07,0,0,1-3.77-1.32,5.2,5.2,0,0,1-1.31-3.81,5.48,5.48,0,0,1,1.26-3.81,5,5,0,0,1,6.82-.1,5.16,5.16,0,0,1,1.21,3.65v1h-6.67a2.16,2.16,0,0,0,.69,1.73,3.07,3.07,0,0,0,2,.57,6.13,6.13,0,0,0,1.75-.25,8.13,8.13,0,0,0,1.8-.81Zm-2.18-5.54a2.19,2.19,0,0,0-.52-1.54,2,2,0,0,0-1.49-.52,1.88,1.88,0,0,0-1.42.54,2.46,2.46,0,0,0-.62,1.53Z"/><path class="cls-4" d="M267.69,240.55h4.57V255.4h-1.68V241.84h-1.67V255.4h-1.65V248a4.6,4.6,0,0,1-2.77-1.18,3.75,3.75,0,0,1,.17-5.22A4.38,4.38,0,0,1,267.69,240.55Z"/><path class="cls-4" d="M219.56,255.21v-.79h54.18v.79Z"/><path class="cls-4" d="M211.1,265.18l-3.63,2,3.64,2-.77,1.34-3.44-2.07v3.84h-1.56v-3.83l-1.72,1-1.71,1-.76-1.34,3.65-2-3.64-2,.76-1.34,3.44,2.07v-3.83h1.56v3.83l1.73-1,1.71-1Z"/><path class="cls-4" d="M215.56,263.33h2.94v3.21h-2.94Zm0,6.12h2.94v3.23h-2.94Z"/><path class="cls-4" d="M242.7,266.28v6.39h-2.56v-6a2.9,2.9,0,0,0-.3-1.53,1.09,1.09,0,0,0-1-.46,1.24,1.24,0,0,0-1.09.62,3.2,3.2,0,0,0-.4,1.73v5.63H234.8v-9.84h2.56v1.48a2.39,2.39,0,0,1,.93-1.27,2.76,2.76,0,0,1,1.59-.45,2.5,2.5,0,0,1,2.11.93A4.5,4.5,0,0,1,242.7,266.28Z"/><path class="cls-4" d="M254.38,268.36l-2.56,2.56-1.05-1.05,1.14-1.14H244.7v-2h7.21l-1.14-1.14,1.05-1.05,2.56,2.56Z"/><path class="cls-4" d="M200.78,274.21v-.79H255v.79Z"/><path class="cls-4" d="M188.21,278.75l-.83,3.29h1.78l.83-3.29h2L191.1,282h1.7v1.89h-2.16L190,286.5h1.8v1.89h-2.27l-.83,3.28h-1.94l.83-3.28h-1.8l-.83,3.28H183l.83-3.28H182V286.5h2.29l.65-2.58H183V282h2.41l.83-3.29Zm.48,5.18h-1.8l-.65,2.58H188Z"/><path class="cls-4" d="M196.78,282.33h2.94v3.21h-2.94Zm0,6.12h2.94v3.23h-2.94Z"/><path class="cls-4" d="M218.39,283.22a3.53,3.53,0,0,1,1.1-1.23,2.54,2.54,0,0,1,1.42-.41,3.1,3.1,0,0,1,2.69,1.34,6.59,6.59,0,0,1,.94,3.83,6.67,6.67,0,0,1-.93,3.81,3,3,0,0,1-2.62,1.35,2.76,2.76,0,0,1-1.55-.43,3,3,0,0,1-1.06-1.28v1.46h-2.57V278h2.57Zm3.59,3.55a4.42,4.42,0,0,0-.47-2.23,1.46,1.46,0,0,0-1.31-.81,1.48,1.48,0,0,0-1.32.81,5.4,5.4,0,0,0,0,4.46,1.48,1.48,0,0,0,1.32.81,1.46,1.46,0,0,0,1.31-.81A4.42,4.42,0,0,0,222,286.77Z"/><path class="cls-4" d="M235.6,287.36,233,289.92,232,288.86l1.14-1.14h-7.21v-2h7.21L232,284.61l1.05-1.05,2.56,2.56Z"/><path class="cls-4" d="M182,293.21v-.79h54.18v.79Z"/><path class="cls-4" d="M164.42,298H167v5h3.24v-5h2.59v13.12h-2.59v-5.84H167v5.84h-2.59Z"/><path class="cls-4" d="M178,301.74h2.94v3.21H178Zm0,6.12h2.94v3.23H178Z"/><path class="cls-4" d="M201.79,298.44v2.79h3.37v2h-3.37v4.66a1.21,1.21,0,0,0,.32.94,1.59,1.59,0,0,0,1.07.29h2v2H203a4.61,4.61,0,0,1-3-.71,3.47,3.47,0,0,1-.78-2.62v-4.54H196.7v-2h2.51v-2.79Z"/><path class="cls-4" d="M222.31,309.13a1,1,0,0,1-1.12,1.13h-13.5a1,1,0,0,1-1.12-1.12V297.88a1,1,0,0,1,1.13-1.12h13.5a1,1,0,0,1,1.13,1.13Zm-14.62-11.25v11.25h13.5V297.88Zm2.63,8.25,2.43-2.63-2.43-2.63.75-.75,3.38,3.38-3.37,3.38Zm8.62-.38v1.13h-4.5v-1.12Z"/><path class="cls-4" d="M163.21,314.11v-.95h43.35v.95Z"/><path class="cls-4" d="M206.56,314.11v-.95h18v.95Z"/><path class="cls-4" d="M144.43,332.08V319H147V329.8h5.55v2.29Z"/><path class="cls-4" d="M157.24,322.74h2.94v3.21h-2.94Zm0,6.12h2.94v3.23h-2.94Z"/><path class="cls-4" d="M178.85,323.64a3.53,3.53,0,0,1,1.1-1.23,2.54,2.54,0,0,1,1.42-.41,3.1,3.1,0,0,1,2.69,1.34,6.59,6.59,0,0,1,.94,3.83,6.67,6.67,0,0,1-.93,3.81,3,3,0,0,1-2.62,1.35,2.76,2.76,0,0,1-1.55-.43,3,3,0,0,1-1.06-1.28v1.46h-2.57V318.41h2.57Zm3.59,3.55A4.42,4.42,0,0,0,182,325a1.46,1.46,0,0,0-1.31-.81,1.48,1.48,0,0,0-1.32.81,5.4,5.4,0,0,0,0,4.46,1.48,1.48,0,0,0,1.32.81,1.46,1.46,0,0,0,1.31-.81A4.42,4.42,0,0,0,182.43,327.19Z"/><path class="cls-4" d="M201.55,330.13a1,1,0,0,1-1.12,1.13h-13.5a1,1,0,0,1-1.12-1.12V318.88a1,1,0,0,1,1.13-1.12h13.5a1,1,0,0,1,1.13,1.13Zm-14.62-11.25v11.25h13.5V318.88Zm2.63,8.25,2.43-2.63-2.43-2.63.75-.75,3.38,3.38-3.37,3.38Zm8.62-.38v1.13h-4.5v-1.12Z"/><path class="cls-4" d="M142.45,335.11v-.95H185.8v.95Z"/><path class="cls-4" d="M185.8,335.11v-.95h18v.95Z"/><path class="cls-4" d="M131.11,346.69v6.39h-2.56v-6a2.9,2.9,0,0,0-.3-1.53,1.09,1.09,0,0,0-1-.46,1.24,1.24,0,0,0-1.09.62,3.2,3.2,0,0,0-.4,1.73v5.63h-2.56v-9.84h2.56v1.48a2.39,2.39,0,0,1,.93-1.27,2.76,2.76,0,0,1,1.59-.45,2.5,2.5,0,0,1,2.11.93A4.5,4.5,0,0,1,131.11,346.69Z"/><path class="cls-4" d="M136.48,343.74h2.94v3.21h-2.94Zm0,6.12h2.94v3.23h-2.94Z"/><path class="cls-4" d="M163.62,346.69v6.39h-2.56v-6a2.9,2.9,0,0,0-.3-1.53,1.09,1.09,0,0,0-1-.46,1.24,1.24,0,0,0-1.09.62,3.2,3.2,0,0,0-.4,1.73v5.63h-2.56v-9.84h2.56v1.48a2.39,2.39,0,0,1,.93-1.27,2.76,2.76,0,0,1,1.59-.45,2.5,2.5,0,0,1,2.11.93A4.5,4.5,0,0,1,163.62,346.69Z"/><path class="cls-4" d="M181.38,354.45a1.25,1.25,0,0,1-.91.38,1.19,1.19,0,0,1-.9-.39L176.13,351a7.06,7.06,0,0,1-6.76.69,6.94,6.94,0,0,1-3.77-3.77,7.06,7.06,0,0,1,0-5.5,7,7,0,0,1,1.51-2.25,7.12,7.12,0,0,1,2.26-1.5,7.06,7.06,0,0,1,5.5,0,6.91,6.91,0,0,1,3.76,3.76,7.06,7.06,0,0,1-.69,6.76l3.45,3.45a1.27,1.27,0,0,1,0,1.82ZM175.29,342a4.48,4.48,0,1,0,1.32,3.18A4.33,4.33,0,0,0,175.29,342Z"/><path class="cls-4" d="M121.69,356.11v-.95H165v.95Z"/><path class="cls-4" d="M165,356.11v-.95h16.71v.95Z"/><path class="cls-4" d="M102,361h2.79l3.66,9.54V361h2.29v13.12h-2.77l-3.67-9.54v9.54H102Z"/><path class="cls-4" d="M115.72,364.74h2.94v3.21h-2.94Zm0,6.12h2.94v3.23h-2.94Z"/><path class="cls-4" d="M137.33,372.69v5.13h-2.57V364.24h2.57v1.48a3,3,0,0,1,1.06-1.28,2.76,2.76,0,0,1,1.55-.43,3,3,0,0,1,2.62,1.35,6.67,6.67,0,0,1,.93,3.81,6.59,6.59,0,0,1-.94,3.83,3.1,3.1,0,0,1-2.69,1.34,2.54,2.54,0,0,1-1.42-.41A3.51,3.51,0,0,1,137.33,372.69Zm3.59-3.54a4.42,4.42,0,0,0-.47-2.23,1.46,1.46,0,0,0-1.31-.81,1.48,1.48,0,0,0-1.32.81,5.4,5.4,0,0,0,0,4.46,1.48,1.48,0,0,0,1.32.81,1.46,1.46,0,0,0,1.31-.81A4.42,4.42,0,0,0,140.92,369.15Z"/><path class="cls-4" d="M160.62,375.45a1.25,1.25,0,0,1-.91.38,1.19,1.19,0,0,1-.9-.39L155.37,372a7.06,7.06,0,0,1-6.76.69,6.94,6.94,0,0,1-3.77-3.77,7.06,7.06,0,0,1,0-5.5,7,7,0,0,1,1.51-2.25,7.12,7.12,0,0,1,2.26-1.5,7.06,7.06,0,0,1,5.5,0,6.91,6.91,0,0,1,3.76,3.76,7.06,7.06,0,0,1-.69,6.76l3.45,3.45a1.27,1.27,0,0,1,0,1.82ZM154.54,363a4.48,4.48,0,1,0,1.32,3.18A4.33,4.33,0,0,0,154.54,363Z"/><path class="cls-4" d="M100.94,377.11v-.95h43.35v.95Z"/><path class="cls-4" d="M144.29,377.11v-.95H161v.95Z"/><path class="cls-4" d="M89.81,394.34a4.64,4.64,0,0,1-1.07,3.41,4.81,4.81,0,0,1-3.47,1.05,10.64,10.64,0,0,1-1.6-.12,11.35,11.35,0,0,1-1.61-.36V396a6.14,6.14,0,0,0,3,.79,2.21,2.21,0,0,0,1.61-.51,2.18,2.18,0,0,0,.52-1.6v-1.06a2.51,2.51,0,0,1-1,1,3.12,3.12,0,0,1-1.52.34A3.18,3.18,0,0,1,82,393.64a5.81,5.81,0,0,1-1-3.58,6.2,6.2,0,0,1,1-3.71A3.13,3.13,0,0,1,84.7,385a2.86,2.86,0,0,1,1.5.4,2.77,2.77,0,0,1,1,1.12v-1.26h2.58ZM87.24,390a3.92,3.92,0,0,0-.5-2.11,1.51,1.51,0,0,0-1.32-.8,1.49,1.49,0,0,0-1.31.79,4.78,4.78,0,0,0,0,4.25,1.48,1.48,0,0,0,2.62,0A4,4,0,0,0,87.24,390Z"/><path class="cls-4" d="M100.65,394.34a4.64,4.64,0,0,1-1.07,3.41,4.81,4.81,0,0,1-3.47,1.05,10.64,10.64,0,0,1-1.6-.12,11.35,11.35,0,0,1-1.61-.36V396a6.14,6.14,0,0,0,3,.79,2.21,2.21,0,0,0,1.61-.51,2.18,2.18,0,0,0,.52-1.6v-1.06a2.51,2.51,0,0,1-1,1,3.12,3.12,0,0,1-1.52.34,3.18,3.18,0,0,1-2.68-1.32,5.81,5.81,0,0,1-1-3.58,6.2,6.2,0,0,1,1-3.71A3.13,3.13,0,0,1,95.53,385a2.86,2.86,0,0,1,1.5.4,2.77,2.77,0,0,1,1,1.12v-1.26h2.58ZM98.07,390a3.92,3.92,0,0,0-.5-2.11,1.51,1.51,0,0,0-1.32-.8,1.49,1.49,0,0,0-1.31.79,4.78,4.78,0,0,0,0,4.25,1.48,1.48,0,0,0,2.62,0A4,4,0,0,0,98.07,390Z"/><path class="cls-4" d="M105.8,385.74h2.94v3.21H105.8Zm0,6.12h2.94v3.23H105.8Z"/><path class="cls-4" d="M127.41,386.64a3.53,3.53,0,0,1,1.1-1.23,2.54,2.54,0,0,1,1.42-.41,3.1,3.1,0,0,1,2.69,1.34,6.59,6.59,0,0,1,.94,3.83,6.67,6.67,0,0,1-.93,3.81,3,3,0,0,1-2.62,1.35,2.76,2.76,0,0,1-1.55-.43,3,3,0,0,1-1.06-1.28v1.46h-2.57V381.41h2.57Zm3.59,3.55a4.42,4.42,0,0,0-.47-2.23,1.46,1.46,0,0,0-1.31-.81,1.48,1.48,0,0,0-1.32.81,5.4,5.4,0,0,0,0,4.46,1.48,1.48,0,0,0,1.32.81,1.46,1.46,0,0,0,1.31-.81A4.42,4.42,0,0,0,131,390.19Z"/><path class="cls-4" d="M147.86,394.26a1,1,0,0,1-1.12,1.13H135.49a1,1,0,0,1-1.12-1.12v-13.5a1,1,0,0,1,1.13-1.12h8.44l3.94,3.94Zm-4.5-13.5h-7.87v13.5h11.25V384.13Zm-6.75,3.38V383h4.5v1.13Zm0,2.25h7.88v1.13h-7.87Zm0,2.25h7.88v1.13h-7.87Zm0,2.25h7.88V392h-7.87Z"/><path class="cls-4" d="M80.18,398.07v-.86h54.18v.86Z"/><path class="cls-4" d="M134.36,398.07v-.86h18v.86Z"/><path class="cls-4" d="M85.39,413.71v-2.5H83.62V409h4v6A5.34,5.34,0,0,1,86,416a5.59,5.59,0,0,1-1.93.33,4.71,4.71,0,0,1-3.94-1.77,9.83,9.83,0,0,1,0-10.09,4.88,4.88,0,0,1,4-1.75,5.47,5.47,0,0,1,1.56.22,5.6,5.6,0,0,1,1.43.65v2.87a3.67,3.67,0,0,0-1.25-1.06,3.39,3.39,0,0,0-1.55-.36,2.46,2.46,0,0,0-2.21,1.11,6.22,6.22,0,0,0-.73,3.37,6.42,6.42,0,0,0,.7,3.33,2.26,2.26,0,0,0,2,1.14,2.92,2.92,0,0,0,.7-.07A1.23,1.23,0,0,0,85.39,413.71Z"/><path class="cls-4" d="M92.51,406.74h2.94v3.21H92.51Zm0,6.12h2.94v3.23H92.51Z"/><path class="cls-4" d="M119.93,415.6a9.79,9.79,0,0,1-1.83.55,10.12,10.12,0,0,1-2,.18,5.07,5.07,0,0,1-3.77-1.32A5.2,5.2,0,0,1,111,411.2a5.48,5.48,0,0,1,1.26-3.81,5,5,0,0,1,6.82-.1,5.16,5.16,0,0,1,1.21,3.65v1h-6.67a2.16,2.16,0,0,0,.69,1.73,3.07,3.07,0,0,0,2,.57,6.13,6.13,0,0,0,1.75-.25,8.13,8.13,0,0,0,1.8-.81Zm-2.18-5.54a2.19,2.19,0,0,0-.52-1.54,2,2,0,0,0-1.49-.52,1.88,1.88,0,0,0-1.42.54,2.46,2.46,0,0,0-.62,1.53Z"/><path class="cls-4" d="M134.58,415.26a1,1,0,0,1-1.12,1.13H122.2a1,1,0,0,1-1.12-1.12v-13.5a1,1,0,0,1,1.13-1.12h8.44l3.94,3.94Zm-4.5-13.5H122.2v13.5h11.25V405.13Zm-6.75,3.38V404h4.5v1.13Zm0,2.25h7.87v1.13h-7.87Zm0,2.25h7.87v1.13h-7.87Zm0,2.25h7.87V413h-7.87Z"/><path class="cls-4" d="M77.73,419.11v-.95h43.35v.95Z"/><path class="cls-4" d="M121.08,419.11v-.95h18v.95Z"/><path class="cls-4" d="M336.16,46.38l7.24.13a.21.21,0,0,1,.16.07l.58.64a.22.22,0,0,1,.06.15v1.41a.22.22,0,0,1-.06.16l-.52.54a.22.22,0,0,1-.16.07H343l0,4.6,4.79-4.62a.24.24,0,0,1-.2-.09l-.45-.58a.22.22,0,0,1,0-.14V47.31a.22.22,0,0,1,0-.13l.45-.64.05-.05.07,0h.07l7.18.06a.21.21,0,0,1,.16.07l.45.45a.22.22,0,0,1,.07.16v1.67a.22.22,0,0,1-.06.16L339.65,65.15a.22.22,0,0,1-.16.07h-2a.22.22,0,0,1-.16-.07l-.64-.64a.22.22,0,0,1-.07-.16l0-14.87h-.43a.22.22,0,0,1-.15-.06l-.49-.47a.22.22,0,0,1-.07-.16V47.05a.22.22,0,0,1,.07-.16l.45-.45A.21.21,0,0,1,336.16,46.38Zm0,.22-.45.45v1.73l.49.47.65,0,0,15.08.64.64h2l15.89-16.15V47.18l-.45-.45-7.18-.06-.45.64v1.41l.45.58h.58l-5.58,5.38.06-5.36h.64l.52-.54V47.37l-.58-.64Zm.09.23-.32.32v1.54l.36.35h.56a.23.23,0,0,1,.22.22l0,15,.51.51h1.8l15.76-16V47.27l-.32-.32-7-.06-.34.49v1.26l.33.43h.47a.32.32,0,0,1,.18,0,.13.13,0,0,1,.06.09.31.31,0,0,1,0,.12l0,.09,0,0-5.58,5.38a.34.34,0,0,1-.16.1.13.13,0,0,1-.11,0,.26.26,0,0,1-.07-.1l0-.09v0l.06-5.36a.22.22,0,0,1,.07-.15.21.21,0,0,1,.16-.07h.55l.39-.4V47.46l-.45-.5Z"/><path class="cls-4" d="M374.7,61.81a6.73,6.73,0,0,1-1.38.47,6.64,6.64,0,0,1-1.45.16,4.14,4.14,0,0,1-3.21-1.21,5,5,0,0,1-1.11-3.49,12.16,12.16,0,0,1,.62-3.88,8.72,8.72,0,0,1,1.68-3.06,5.67,5.67,0,0,1,2-1.47,6.13,6.13,0,0,1,2.49-.5,6.3,6.3,0,0,1,1.41.16,6.84,6.84,0,0,1,1.37.47l-.56,2.88a2.84,2.84,0,0,0-1.08-.9,3.24,3.24,0,0,0-1.41-.3,2.56,2.56,0,0,0-1.38.43,3.71,3.71,0,0,0-1.15,1.17,8.34,8.34,0,0,0-1,2.26,9.24,9.24,0,0,0-.37,2.51,3,3,0,0,0,.55,2,1.93,1.93,0,0,0,1.59.68,3.67,3.67,0,0,0,1.42-.29,6.89,6.89,0,0,0,1.53-.94Z"/><path class="cls-4" d="M386.9,55.79l-1.24,6.4h-2.58l1.17-6c0-.15.05-.31.07-.46s0-.31,0-.47a1.09,1.09,0,0,0-.25-.78,1,1,0,0,0-.74-.27,1.54,1.54,0,0,0-1.24.63,4.09,4.09,0,0,0-.74,1.81l-1.06,5.53h-2.58l2.66-13.68H383l-1,5.31a3.16,3.16,0,0,1,1.16-1.26,3.05,3.05,0,0,1,1.63-.45,2.12,2.12,0,0,1,2.34,2.34,5.35,5.35,0,0,1,0,.6C387,55.27,387,55.52,386.9,55.79Z"/><path class="cls-4" d="M396.78,61.71a8.48,8.48,0,0,1-1.74.55,9.35,9.35,0,0,1-1.87.18,4.74,4.74,0,0,1-3.31-1,3.93,3.93,0,0,1-1.13-3,7.54,7.54,0,0,1,.39-2.4,6.22,6.22,0,0,1,1.09-2A5,5,0,0,1,392,52.57a5.1,5.1,0,0,1,2.2-.48,4.09,4.09,0,0,1,2.94,1.05,3.68,3.68,0,0,1,1.11,2.79,8.48,8.48,0,0,1-.06.91q-.06.52-.18,1.25H391.3c0,.1,0,.19,0,.28s0,.18,0,.26a1.54,1.54,0,0,0,.59,1.31,2.87,2.87,0,0,0,1.74.44,6.85,6.85,0,0,0,1.9-.27,6.76,6.76,0,0,0,1.77-.79Zm-1-5.53a1.58,1.58,0,0,0,0-.24c0-.08,0-.15,0-.22a1.56,1.56,0,0,0-.45-1.18,1.7,1.7,0,0,0-1.23-.43,2.28,2.28,0,0,0-1.5.52,3.37,3.37,0,0,0-1,1.56Z"/><path class="cls-4" d="M408.68,56.57l-1.08,5.62H405l.22-1.1a3.87,3.87,0,0,1-1.35,1,4.21,4.21,0,0,1-1.73.34,2.86,2.86,0,0,1-2.1-.77,2.79,2.79,0,0,1-.78-2.08,3.35,3.35,0,0,1,1.37-2.89,6.62,6.62,0,0,1,3.94-1h1.7l.07-.43v-.1s0-.08,0-.15a.84.84,0,0,0-.45-.76,2.6,2.6,0,0,0-1.3-.26,6.2,6.2,0,0,0-1.63.25,12,12,0,0,0-1.95.74l.41-2.2a13.92,13.92,0,0,1,1.88-.51,8.86,8.86,0,0,1,1.68-.17,5.16,5.16,0,0,1,2.89.67,2.22,2.22,0,0,1,1,2,6.29,6.29,0,0,1-.06.81Q408.8,56,408.68,56.57Zm-3.73,1a4.31,4.31,0,0,0-2.24.46A1.55,1.55,0,0,0,402,59.4a1.25,1.25,0,0,0,.36.91,1.23,1.23,0,0,0,.91.36,2.21,2.21,0,0,0,1.74-.82,4.72,4.72,0,0,0,1-2.33Z"/><path class="cls-4" d="M417.18,49.55l-.54,2.79H420l-.38,2h-3.37L415.34,59q0,.18-.05.31a1.65,1.65,0,0,0,0,.2.6.6,0,0,0,.26.56,2,2,0,0,0,1,.16h2l-.38,2h-2.15a4.9,4.9,0,0,1-2.54-.49,1.78,1.78,0,0,1-.75-1.62,4,4,0,0,1,0-.48c0-.2.07-.45.12-.74l.89-4.54h-2.52l.38-2h2.52l.54-2.79Z"/><path class="cls-4" d="M428.88,61.81a6.73,6.73,0,0,1-1.38.47,6.64,6.64,0,0,1-1.45.16,4.14,4.14,0,0,1-3.21-1.21,5,5,0,0,1-1.11-3.49,12.16,12.16,0,0,1,.62-3.88A8.72,8.72,0,0,1,424,50.8a5.67,5.67,0,0,1,2-1.47,6.13,6.13,0,0,1,2.49-.5,6.3,6.3,0,0,1,1.41.16,6.84,6.84,0,0,1,1.37.47l-.56,2.88a2.84,2.84,0,0,0-1.08-.9,3.24,3.24,0,0,0-1.41-.3,2.56,2.56,0,0,0-1.38.43,3.71,3.71,0,0,0-1.15,1.17,8.34,8.34,0,0,0-1,2.26,9.24,9.24,0,0,0-.37,2.51,3,3,0,0,0,.55,2,1.93,1.93,0,0,0,1.59.68,3.67,3.67,0,0,0,1.42-.29,6.89,6.89,0,0,0,1.53-.94Z"/><path class="cls-4" d="M441.09,55.79l-1.24,6.4h-2.58l1.17-6c0-.15.05-.31.07-.46s0-.31,0-.47a1.09,1.09,0,0,0-.25-.78,1,1,0,0,0-.74-.27,1.54,1.54,0,0,0-1.24.63,4.09,4.09,0,0,0-.74,1.81l-1.06,5.53h-2.58l2.66-13.68h2.56l-1,5.31a3.16,3.16,0,0,1,1.16-1.26,3.05,3.05,0,0,1,1.63-.45,2.12,2.12,0,0,1,2.34,2.34,5.35,5.35,0,0,1,0,.6C441.18,55.27,441.14,55.52,441.09,55.79Z"/><path class="cls-4" d="M452,56.57l-1.08,5.62h-2.56l.22-1.1a3.87,3.87,0,0,1-1.35,1,4.21,4.21,0,0,1-1.73.34,2.86,2.86,0,0,1-2.1-.77,2.79,2.79,0,0,1-.78-2.08A3.35,3.35,0,0,1,444,56.71a6.62,6.62,0,0,1,3.94-1h1.7l.07-.43v-.1s0-.08,0-.15a.84.84,0,0,0-.45-.76A2.6,2.6,0,0,0,448,54a6.2,6.2,0,0,0-1.63.25,12,12,0,0,0-1.95.74l.41-2.2a13.92,13.92,0,0,1,1.88-.51,8.86,8.86,0,0,1,1.68-.17,5.16,5.16,0,0,1,2.89.67,2.22,2.22,0,0,1,1,2,6.29,6.29,0,0,1-.06.81Q452.14,56,452,56.57Zm-3.73,1a4.31,4.31,0,0,0-2.24.46,1.55,1.55,0,0,0-.73,1.42,1.25,1.25,0,0,0,.36.91,1.23,1.23,0,0,0,.91.36,2.21,2.21,0,0,0,1.74-.82,4.72,4.72,0,0,0,1-2.33Z"/><path class="cls-4" d="M455.79,52.35h5.1l-1.53,7.87h3.2l-.38,2h-9l.38-2h3.21l1.15-5.89h-2.52Zm3.45-4.79h2.58l-.59,3h-2.58Z"/><path class="cls-4" d="M473.6,55.79l-1.24,6.4h-2.58l1.17-6c0-.15.05-.31.07-.46s0-.31,0-.47a1.09,1.09,0,0,0-.25-.78,1,1,0,0,0-.74-.27,1.54,1.54,0,0,0-1.23.63,4.07,4.07,0,0,0-.74,1.81L467,62.19h-2.58l1.91-9.84h2.58l-.28,1.48a3.16,3.16,0,0,1,1.16-1.26,3.05,3.05,0,0,1,1.63-.45,2.12,2.12,0,0,1,2.34,2.34,5.35,5.35,0,0,1,0,.6C473.69,55.27,473.65,55.52,473.6,55.79Z"/><path class="cls-4" d="M84.68,62h5.1v7.87H93v2H84v-2H87.2V64H84.68Zm2.52-4.79h2.58v3H87.2Z"/><path class="cls-4" d="M101.48,58.7h1.94L96.51,73.49H94.57Z"/><path class="cls-4" d="M108.25,58.7h3.17L115,71.82h-2.59l-.81-3.24h-3.47l-.79,3.24H104.7Zm1.58,2.37-1.22,5.37h2.45Z"/><path class="cls-4" d="M123.15,58.7h1.94l-6.91,14.79h-1.94Z"/><path class="cls-4" d="M133.18,65.62a1.31,1.31,0,0,1,.67.36,4.66,4.66,0,0,1,.7,1.11l2.37,4.72h-2.85l-1.58-3.31-.18-.39q-.69-1.49-1.63-1.49h-.83v5.19h-2.59V58.7H131a5.79,5.79,0,0,1,3.63.9,3.55,3.55,0,0,1,1.1,2.92,3.28,3.28,0,0,1-.66,2.15A2.81,2.81,0,0,1,133.18,65.62Zm-3.33-4.75v3.58h1.22A2.25,2.25,0,0,0,132.6,64a2.28,2.28,0,0,0,0-2.75,2.26,2.26,0,0,0-1.53-.41Z"/><path class="cls-4" d="M144.83,58.7h1.94l-6.91,14.79h-1.94Z"/><path class="cls-4" d="M157.9,62l-3.13,9.84h-3.17L148.46,62h2.61l2.1,7.68L155.28,62Z"/><path class="cls-4" d="M82.74,73.36v-.79H158.6v.79Z"/><path class="cls-4" d="M91.45,81.28v2.25A5.9,5.9,0,0,0,90,82.84a5.3,5.3,0,0,0-1.54-.23,2.68,2.68,0,0,0-1.3.25.81.81,0,0,0-.44.74q0,.7,1.88,1.14l.1,0,.74.18A3.86,3.86,0,0,1,91.46,86a2.93,2.93,0,0,1,.65,2,2.69,2.69,0,0,1-1,2.28,4.92,4.92,0,0,1-3,.76,11.16,11.16,0,0,1-1.82-.15,13.23,13.23,0,0,1-1.89-.46V88.21a8,8,0,0,0,1.74.74,6.16,6.16,0,0,0,1.71.25,2.84,2.84,0,0,0,1.37-.26.83.83,0,0,0,.47-.76.91.91,0,0,0-.33-.76,4.77,4.77,0,0,0-1.57-.56l-.71-.16a4.19,4.19,0,0,1-2.15-1,3,3,0,0,1,.35-4.12,4.65,4.65,0,0,1,2.89-.79,10.27,10.27,0,0,1,1.67.14A9.63,9.63,0,0,1,91.45,81.28Z"/><path class="cls-4" d="M101.48,77.7h1.94L96.51,92.49H94.57Z"/><path class="cls-4" d="M105.27,85.91a5.49,5.49,0,0,1,1.23-3.77,4.66,4.66,0,0,1,6.64,0,6.39,6.39,0,0,1,0,7.55,4.66,4.66,0,0,1-6.64,0A5.49,5.49,0,0,1,105.27,85.91Zm4.55-3.08a1.64,1.64,0,0,0-1.45.81,5.12,5.12,0,0,0,0,4.53,1.71,1.71,0,0,0,2.91,0,5.12,5.12,0,0,0,0-4.53A1.65,1.65,0,0,0,109.83,82.83Z"/><path class="cls-4" d="M82.74,92.36v-.79h32.51v.79Z"/></g></svg>